<svg width="340" height="56" viewBox="0 0 340 56" fill="none" xmlns="http://www.w3.org/2000/svg">
<path d="M340 48.0059H0V49.6086H340V48.0059Z" fill="white"/>
<path d="M271.495 41.8366H184.813V42.6382H271.495V41.8366Z" fill="white"/>
<path d="M155.187 41.8366H68.5049V42.6382H155.187V41.8366Z" fill="white"/>
<path d="M170 49.6083C169.647 49.6083 169.335 49.3801 169.23 49.0451L154.417 1.72178C154.341 1.47863 154.386 1.21384 154.538 1.00852C154.689 0.803451 154.93 0.682251 155.187 0.682251H184.813C185.069 0.682251 185.311 0.803451 185.463 1.00852C185.614 1.21384 185.659 1.47863 185.583 1.72178L170.77 49.0454C170.665 49.3804 170.353 49.6083 170 49.6083ZM156.282 2.28497L170 46.1097L183.718 2.28497H156.282Z" fill="white"/>
<path d="M170 49.6083C169.723 49.6083 169.465 49.467 169.317 49.2338L147.551 14.8327C147.395 14.5856 147.386 14.2738 147.528 14.0184C147.669 13.7631 147.94 13.6046 148.233 13.6046H191.766C192.06 13.6046 192.33 13.7631 192.472 14.0184C192.614 14.2735 192.605 14.5853 192.449 14.8327L170.682 49.2338C170.535 49.4667 170.277 49.6083 170 49.6083ZM149.693 15.2073L170 47.302L190.307 15.2073H149.693Z" fill="white"/>
<path d="M271.54 55.7776H68.4644L68.4646 54.9762H271.54V55.7776Z" fill="white"/>
</svg>
